<svg width="9" height="10" viewBox="0 0 9 10" fill="none" xmlns="http://www.w3.org/2000/svg">
<mask id="path-1-inside-1_7_27" fill="white">
<path d="M4 7C1.79512 7 0 5.42927 0 3.5C0 1.57073 1.79512 0 4 0C6.20488 0 8 1.57073 8 3.5C8 5.42927 6.20488 7 4 7ZM4 0.512195C2.11512 0.512195 0.585366 1.85415 0.585366 3.5C0.585366 5.14585 2.11512 6.4878 4 6.4878C5.88488 6.4878 7.41463 5.14585 7.41463 3.5C7.41463 1.85415 5.88488 0.512195 4 0.512195Z"/>
</mask>
<path d="M4 7C1.79512 7 0 5.42927 0 3.5C0 1.57073 1.79512 0 4 0C6.20488 0 8 1.57073 8 3.5C8 5.42927 6.20488 7 4 7ZM4 0.512195C2.11512 0.512195 0.585366 1.85415 0.585366 3.5C0.585366 5.14585 2.11512 6.4878 4 6.4878C5.88488 6.4878 7.41463 5.14585 7.41463 3.5C7.41463 1.85415 5.88488 0.512195 4 0.512195Z" fill="white"/>
<path d="M4 6.3C2.091 6.3 0.7 4.95779 0.7 3.5H-0.7C-0.7 5.90074 1.49925 7.7 4 7.7V6.3ZM0.7 3.5C0.7 2.04221 2.091 0.7 4 0.7V-0.7C1.49925 -0.7 -0.7 1.09926 -0.7 3.5H0.7ZM4 0.7C5.909 0.7 7.3 2.04221 7.3 3.5H8.7C8.7 1.09926 6.50075 -0.7 4 -0.7V0.7ZM7.3 3.5C7.3 4.95779 5.909 6.3 4 6.3V7.7C6.50075 7.7 8.7 5.90074 8.7 3.5H7.3ZM4 -0.187805C1.8187 -0.187805 -0.114634 1.38315 -0.114634 3.5H1.28537C1.28537 2.32514 2.41155 1.2122 4 1.2122V-0.187805ZM-0.114634 3.5C-0.114634 5.61685 1.8187 7.1878 4 7.1878V5.7878C2.41155 5.7878 1.28537 4.67486 1.28537 3.5H-0.114634ZM4 7.1878C6.1813 7.1878 8.11463 5.61685 8.11463 3.5H6.71463C6.71463 4.67486 5.58845 5.7878 4 5.7878V7.1878ZM8.11463 3.5C8.11463 1.38315 6.1813 -0.187805 4 -0.187805V1.2122C5.58845 1.2122 6.71463 2.32514 6.71463 3.5H8.11463Z" fill="white" mask="url(#path-1-inside-1_7_27)"/>
<path d="M8.05229 9.1C8.04746 9.11536 8.04262 9.12826 8.03805 9.13901C8.02978 9.13076 8.02046 9.12062 8.01021 9.10819L6.35434 7.10027C6.28115 7.01151 6.21377 6.86296 6.1795 6.68689C6.14522 6.51083 6.15195 6.34785 6.1865 6.23812C6.19131 6.22282 6.19619 6.21005 6.20082 6.1995C6.20907 6.20755 6.21838 6.21755 6.22858 6.22992L7.88445 8.23785C7.95764 8.3266 8.02502 8.47516 8.0593 8.65122C8.09357 8.82729 8.08685 8.99027 8.05229 9.1Z" fill="white" stroke="white" stroke-width="0.7"/>
</svg>
